<svg id="Capa_1" data-name="Capa 1" xmlns="http://www.w3.org/2000/svg" xmlns:xlink="http://www.w3.org/1999/xlink" viewBox="0 0 670.76 489.74"><defs><style>.cls-1{fill:url(#Degradado_sin_nombre_7);}</style><linearGradient id="Degradado_sin_nombre_7" x1="103.71" y1="314.14" x2="774.47" y2="314.14" gradientUnits="userSpaceOnUse"><stop offset="0" stop-color="#f0047f"/><stop offset="1" stop-color="#82027e"/></linearGradient></defs><path class="cls-1" d="M378.71,312.85a31.41,31.41,0,1,1-31.41-31.41A31.41,31.41,0,0,1,378.71,312.85ZM347.3,535a12,12,0,1,0,12,12A12,12,0,0,0,347.3,535ZM590.88,312.85c0,109.93-73.2,203.06-173.42,233.26a9.13,9.13,0,0,1-11.74-8.75h0a9.13,9.13,0,0,1,6.52-8.74c92.68-27.95,160.38-114.1,160.38-215.77,0-124.44-101.4-225.65-225.92-225.32C224,87.85,123.49,187.39,122,310.05c-1.26,102.88,66.82,190.36,160.35,218.56a9.15,9.15,0,0,1,6.53,8.75h0a9.12,9.12,0,0,1-11.72,8.76C176.52,515.8,103.12,422,103.72,311.51,104.44,177.4,217,67.22,351.12,69.3,483.68,71.35,590.88,179.81,590.88,312.85ZM444.48,184a12,12,0,1,0,0-17A12,12,0,0,0,444.48,184Zm-233,19.83c42.94-55,112.81-76.87,176.61-61.55a9.13,9.13,0,0,1,5,14.49h0a9.16,9.16,0,0,1-9.38,3.24A154.57,154.57,0,0,0,225.87,215c-53.3,68.27-40,167.7,30.24,219.38C321,482.19,412.68,471.61,465,410.28a154.55,154.55,0,0,0,19.39-171.77,9.15,9.15,0,0,1,.88-9.87h0a9.15,9.15,0,0,1,15.33,1.46c30.64,58.86,25.88,133-18.48,188.13C423.52,491.06,316.52,503.88,242.41,447,166.41,388.58,152.61,279.19,211.47,203.79Zm83.15,51.77a12,12,0,1,0-17,0A12,12,0,0,0,294.62,255.56ZM271.13,377.89A102.75,102.75,0,0,1,241,306.77a9.13,9.13,0,0,1,15.59-6.59h0a9.09,9.09,0,0,1,2.67,6.3,84.85,84.85,0,1,0,86.26-86.27,9.14,9.14,0,0,1-6.3-2.66h0a9.13,9.13,0,0,1,6.6-15.59,103.08,103.08,0,1,1-74.7,175.93Zm72.92-65h0a7.5,7.5,0,0,1,4.3-9.7L613.9,200.57a7.44,7.44,0,0,0,3.79-3.27l.27-.45,28.6-46.1a16.49,16.49,0,0,1,8.11-6.59l77.67-30c6.33-2.44,13.19-1,17.06,3.66a12.53,12.53,0,0,1,.82,14.74l-15,24.59a7.5,7.5,0,0,0,4.28,11.09l25.61,7.55a12.52,12.52,0,0,1,9.31,11.46c.25,6-3.84,11.73-10.17,14.18l-76.1,29.4a16.55,16.55,0,0,1-10.56.54l-52.42-15.47a13.35,13.35,0,0,1-1.77-.65,7.61,7.61,0,0,0-5.78-.05L353.75,317.14A7.5,7.5,0,0,1,344.05,312.85ZM637.4,194a7.51,7.51,0,0,0,4.26,11.15L681.88,217a1.75,1.75,0,0,0,.9-.15l52.38-20.23a7.5,7.5,0,0,0-.58-14.19l-11.37-3.35a12.51,12.51,0,0,1-7.32-18.94l7.24-11.9a7.5,7.5,0,0,0-9.11-10.9l-53.94,20.84a1.88,1.88,0,0,0-.78.51Zm21.9-35.3Z" transform="translate(-103.71 -69.27)"/></svg>