<?xml version="1.0" encoding="utf-8"?>
<!-- Generator: Adobe Illustrator 25.2.3, SVG Export Plug-In . SVG Version: 6.00 Build 0)  -->
<svg version="1.1" id="Capa_1" xmlns="http://www.w3.org/2000/svg" xmlns:xlink="http://www.w3.org/1999/xlink" x="0px" y="0px"
	 viewBox="0 0 521 235.1" style="enable-background:new 0 0 521 235.1;" xml:space="preserve">
<style type="text/css">
	.st0{fill:url(#SVGID_1_);}
</style>
<linearGradient id="SVGID_1_" gradientUnits="userSpaceOnUse" x1="-9.100819e-03" y1="117.56" x2="520.9955" y2="117.56">
	<stop  offset="0" style="stop-color:#F0047F"/>
	<stop  offset="1" style="stop-color:#82027E"/>
</linearGradient>
<path class="st0" d="M8.7,91.8c-2.2-3.6-1.2-8.3,2.4-10.5c18.1-11.9,36.8-22.6,56.2-32.1C104.5,30.8,158.9,9.5,220.8,3
	c0.3,0,0.5,0,0.8,0c4.1,0,7.5,3.4,7.5,7.5l0,0c0,3.8-2.9,7.1-6.7,7.5c-59.5,6.2-112.1,26.7-148,44.4c-19,9.4-37.5,19.9-55.2,31.6
	c-3.2,2.1-7.6,1.5-10-1.5C9,92.3,8.8,92.1,8.7,91.8z M81.9,168.9L81.9,168.9c-4.9,0-8.9,4.1-8.7,9c0.1,4.8,4.3,8.7,9.1,8.5
	c5.6-0.2,9.8-5.7,7.9-11.5C89.1,171.3,85.6,168.9,81.9,168.9z M260.2,17.5c4.9,0.1,9-3.8,9-8.7v0c0-4.8-3.9-8.7-8.7-8.7h0
	c-4.9,0-8.9,4.1-8.7,9C251.9,13.6,255.7,17.4,260.2,17.5z M293.4,11.4c0,3.8,2.8,7,6.6,7.5c56.4,7.1,106.1,26.6,140.4,43.5
	c20.4,10,40.1,21.4,59,34.1c1.2,0.8,2.6,1.3,4,1.4c4.8,0.2,8.4-3.9,7.8-8.4c-0.3-2.1-1.5-4.1-3.3-5.3c-19.4-13-39.6-24.7-60.6-35
	c-35.6-17.6-86.9-37.9-145.6-45.2C297.3,3.4,293.4,6.9,293.4,11.4L293.4,11.4z M257.3,210.9c-43.8,0-79.2-36-78.2-80.1
	c1-41.5,34.8-75.3,76.3-76.3c44.1-1,80.1,34.4,80.1,78.2C335.5,175.9,300.5,210.9,257.3,210.9z M254.4,195.9
	c36.3,1.7,66.2-27.3,66.2-63.2c0-34.9-28.3-63.2-63.2-63.2c0,0,0,0,0,0c-35.9,0-64.8,29.9-63.1,66.2
	C195.7,168.1,222,194.4,254.4,195.9z M289.5,132.7L289.5,132.7c0-17.8-14.4-32.1-32.1-32.1h0c-18.5,0-33.4,15.6-32.1,34.4
	c1.1,15.9,13.9,28.7,29.8,29.8C273.8,166.1,289.5,151.2,289.5,132.7z M519.7,130.4c-0.5-0.8-1.2-1.5-2.1-2.1h0
	c-1.4-1-35.7-23.8-84.9-47.1C366.2,50,307.2,34.1,257.3,34.1c-62.2,0-128,25.7-172.3,47.3c-47.8,23.2-80.5,46.1-81.8,47.1
	c-3.4,2.4-4.2,7.1-1.8,10.5c0.5,0.7,1.1,1.3,1.8,1.8c1,0.7,17.2,12.1,43.2,26.8c3.6,2,8.2,0.8,10.2-2.9c0.1-0.1,0.1-0.2,0.2-0.3
	v-0.1c1.8-3.6,0.5-7.9-3-9.9c-8.8-5-16.4-9.5-22.7-13.4c-3.5-2.2-4.6-6.8-2.5-10.3c0.6-1,1.5-1.8,2.5-2.5
	c40.6-25.1,138.2-79.1,226.2-79.1c87.8,0,189,53.9,231.5,79c3.6,2.1,4.7,6.7,2.6,10.3c-0.6,1.1-1.5,2-2.6,2.6
	c-42.5,25.2-143.7,79.1-231.5,79.1c-45.8,0-94.2-14.7-135.9-32.3c-3.6-1.5-7.9,0-9.6,3.6v0.1c-1.9,3.7-0.4,8.2,3.3,10.1
	c0.2,0.1,0.3,0.2,0.5,0.2c41.2,17.4,92.6,33.4,141.8,33.4c49.9,0,108.9-15.9,175.4-47.2c49.3-23.2,83.5-46.1,84.9-47.1
	C521.1,138.5,522,133.9,519.7,130.4z"/>
</svg>
